<?xml version="1.0" encoding="UTF-8"?>
<svg version="1.1" xmlns="http://www.w3.org/2000/svg" width="1024" height="1024">
<path d="M0 0 C5.34521515 4.77554369 8.46203507 10.31522209 9.28125 17.44921875 C9.5628819 25.11195334 7.89396967 31.86029077 2.55078125 37.61328125 C-3.91926725 43.39884099 -9.91484379 44.83089098 -18.55859375 44.4765625 C-25.73960354 43.48214344 -30.96587807 40.74105175 -35.5 35.0625 C-39.76629917 28.59074109 -40.74721435 22.65005169 -40 15 C-38.70289787 8.92869005 -35.64080063 4.09972073 -31 0 C-21.32212825 -6.26215231 -9.63385602 -6.83693008 0 0 Z " fill="#F4F4F4" transform="translate(286,575)"/>
<path d="M0 0 C5.7884336 3.36071885 9.02999302 7.92634903 11.875 13.875 C13.71029621 23.05148105 12.34338481 29.85879082 7.40234375 37.75390625 C3.72793004 42.72370649 -0.99976293 45.16360947 -6.88671875 46.5703125 C-14.14645888 47.64160853 -20.54236914 46.52469555 -26.765625 42.5546875 C-32.58969398 37.91700294 -35.91707456 32.696905 -36.83984375 25.26171875 C-37.10946984 17.4641322 -35.61750097 11.42972877 -30.8125 5.25 C-22.71066845 -3.36435617 -10.79609608 -4.81094916 0 0 Z " fill="#F4F4F4" transform="translate(603.5,406)"/>
<path d="M0 0 C5.18926848 5.47756117 7.56365451 11.34043903 7.875 18.875 C7.54856195 26.16831331 5.60924516 32.05714185 0.34765625 37.25390625 C-6.49763171 42.70648687 -13.11052746 44.21885546 -21.75 43.375 C-28.53592978 41.92522326 -34.02341541 38.21700556 -38.0390625 32.55859375 C-41.84037335 25.79007262 -42.59751017 18.67974229 -40.6875 11.1875 C-38.48659321 4.84370983 -34.87159595 0.45289027 -29.125 -3 C-18.60188298 -8.06668597 -9.64107603 -5.69699947 0 0 Z " fill="#F4F4F4" transform="translate(930.75,492.625)"/>
<path d="M0 0 C5.92647252 3.80188803 10.15674653 8.46180004 12.0703125 15.328125 C12.87764 23.56059131 12.59805734 30.84342868 7.37109375 37.48828125 C1.71185203 43.6144938 -3.48933291 46.33686453 -11.8046875 46.765625 C-19.37599619 46.47486814 -25.64250399 44.15404774 -30.8671875 38.578125 C-35.38416252 32.81472055 -37.58714013 27.0560261 -37.26953125 19.6875 C-36.1603821 11.98720016 -33.12320749 6.51296411 -26.9921875 1.734375 C-18.58361243 -3.99874437 -9.09052803 -4.62672036 0 0 Z " fill="#F4F4F4" transform="translate(845.9296875,489.671875)"/>
<path d="M0 0 C5.59221609 4.35741678 8.62963927 9.84456128 10.08984375 16.74609375 C10.69959994 24.52048519 8.84825891 30.94148914 4.02734375 37.05859375 C-1.18680503 42.54659489 -7.4762539 44.87360171 -14.97265625 45.24609375 C-22.02161681 44.93576215 -29.04742506 41.87897667 -33.91015625 36.74609375 C-38.97879866 29.48712388 -40.1143734 22.46551792 -38.91015625 13.74609375 C-36.52482285 5.85419283 -30.85812744 0.88531063 -23.91015625 -3.25390625 C-15.68207302 -5.84328234 -7.15869051 -4.69926309 0 0 Z " fill="#F4F4F4" transform="translate(525.91015625,491.25390625)"/>
<path d="M0 0 C6.01260168 4.68497838 8.92193771 10.17846855 10.02734375 17.68359375 C10.51156737 25.18905985 7.9252307 32.01997762 3.08984375 37.74609375 C-4.4591848 43.67946305 -10.34531331 45.53836237 -19.91015625 44.74609375 C-26.42019298 43.29050455 -31.52706897 40.11008239 -35.390625 34.65625 C-39.31657323 27.87106777 -40.06527187 21.46264481 -38.91015625 13.74609375 C-36.67134927 6.27998055 -32.63883496 1.57194288 -25.91015625 -2.25390625 C-17.46660003 -6.29212879 -7.68853667 -5.04707622 0 0 Z " fill="#F4F4F4" transform="translate(124.91015625,491.25390625)"/>
<path d="M0 0 C5.76540814 5.35472153 8.13032606 10.96249942 8.4375 18.8125 C8.12727572 26.38033973 6.38783439 32.35105646 0.91015625 37.75 C-5.92872339 43.21060255 -12.55024164 44.71863919 -21.1875 43.875 C-27.96665547 42.42667055 -33.51081353 38.71969512 -37.4765625 33.0234375 C-40.82321474 26.98020215 -41.94506132 20.60566186 -40.5625 13.8125 C-38.19006184 6.01291573 -34.20572816 1.3510654 -27.37109375 -2.99609375 C-18.29806171 -7.68680262 -8.11127517 -5.40751678 0 0 Z " fill="#F4F4F4" transform="translate(447.1875,492.125)"/>
<path d="M0 0 C6.4216526 5.45599055 9.58397705 11.63175897 10.375 19.9375 C9.99886845 27.62562883 7.31434956 33.70765873 2.0078125 39.26953125 C-3.72965754 44.21447138 -9.80743158 45.70316986 -17.296875 45.37890625 C-25.26562496 44.26189939 -31.07695594 40.25720234 -36 34 C-39.86410836 27.76756716 -39.78364799 21.1864083 -39 14 C-37.12508449 7.22575168 -32.14915701 1.4325619 -26.12109375 -2.1015625 C-17.42191778 -5.86241837 -8.05521729 -4.81150563 0 0 Z " fill="#F4F4F4" transform="translate(205,491)"/>
<path d="M0 0 C5.83765277 3.35071777 9.0766157 7.89315102 11.9375 13.875 C13.60792785 22.22713923 13.03606381 29.70849625 8.30859375 36.91015625 C3.62361537 42.92275793 -1.8698748 45.83209396 -9.375 46.9375 C-16.8804661 47.42172362 -23.71138387 44.83538695 -29.4375 40 C-35.28311392 32.56262267 -37.45175429 26.475636 -36.4375 17 C-34.20718979 9.67348874 -30.69199757 4.06864237 -24 0.1875 C-16.16672802 -3.44649215 -7.90396116 -3.49438283 0 0 Z " fill="#F4F4F4" transform="translate(282.4375,406)"/>
<path d="M0 0 C6.03247287 5.51266795 9.10069079 11.59513671 9.5 19.8125 C9.30871719 26.75084933 7.20511521 32.4253943 2.54296875 37.625 C-4.02495335 43.44774888 -10.0751957 44.54877049 -18.58203125 44.3515625 C-25.80037208 43.60910459 -30.26188613 40.41498727 -35 35 C-35.556875 34.38125 -36.11375 33.7625 -36.6875 33.125 C-40.33704321 27.21621576 -40.95411779 20.38297861 -39.5 13.703125 C-37.39269894 6.56703733 -33.98422891 1.96817167 -27.5 -1.8125 C-18.67014749 -6.61606413 -8.19774845 -5.83538653 0 0 Z " fill="#F4F4F4" transform="translate(687,575)"/>
<path d="M0 0 C5.42872749 4.50369475 8.77007108 10.14203479 9.5078125 17.14453125 C9.74507887 24.89939522 7.53093585 30.0558201 3.64453125 36.6328125 C-1.83302992 41.82208098 -7.69590778 44.19646701 -15.23046875 44.5078125 C-22.51802154 44.18163228 -28.45722723 42.25813016 -33.609375 36.9453125 C-39.30240562 29.70213138 -40.82403412 23.03003116 -39.73046875 13.8828125 C-37.60292773 7.09177754 -33.90760915 1.5362185 -27.73046875 -2.1171875 C-17.88631776 -6.62494688 -9.03390676 -5.88982268 0 0 Z " fill="#F4F4F4" transform="translate(606.73046875,575.1171875)"/>
<path d="M0 0 C5.49566159 3.87874075 10.10269613 8.85408014 11.296875 15.62109375 C12.22267969 23.7347432 11.04367702 29.89550438 6.296875 36.62109375 C0.65426099 42.877791 -4.52766067 45.58591693 -12.953125 46.05859375 C-19.87082656 45.90800433 -25.38199648 43.57087246 -30.5546875 38.9765625 C-36.09132738 32.93535199 -38.37856299 26.63752258 -38.109375 18.4609375 C-36.98361805 10.59146345 -32.80530376 4.81228979 -26.6640625 -0.0390625 C-18.52544887 -5.59990807 -8.3055796 -4.66858216 0 0 Z " fill="#F4F4F4" transform="translate(283.703125,490.37890625)"/>
<path d="M0 0 C6.37464087 3.64857493 10.25262946 9.0911047 12.5625 16 C13.68725558 24.37054943 12.43042803 31.06876238 7.5625 38 C3.02987972 43.44144515 -2.50771088 45.89871417 -9.4375 47 C-17.30193562 47.51369564 -23.32322894 44.84363214 -29.4375 40 C-34.18345633 35.04286528 -36.46811309 29.48424814 -36.75 22.625 C-36.55323724 15.29558715 -33.67601746 8.20064865 -28.4375 3 C-19.97271875 -3.26552033 -9.63234559 -4.25851068 0 0 Z " fill="#F4F4F4" transform="translate(683.4375,406)"/>
<path d="M0 0 C4.92684132 4.37594978 8.40801916 9.673424 9.31640625 16.3125 C9.67213219 23.65651947 8.08932825 30.43487499 3.19921875 36.078125 C-3.18157719 41.97571504 -9.42617296 44.69378854 -18.16015625 44.40625 C-26.0296303 43.28049305 -31.80880396 39.10217876 -36.66015625 32.9609375 C-40.59098188 27.20795072 -40.87374813 20.76924866 -40 14 C-37.67995193 6.57584617 -33.3780655 1.35792125 -27 -3 C-18.0362339 -7.58148045 -7.96451253 -5.54721311 0 0 Z " fill="#F4F4F4" transform="translate(769,492)"/>
<path d="M0 0 C5.32360924 4.62727216 8.29523064 10.19712733 9.31640625 17.15625 C9.69750399 24.13894401 7.81031085 30.75076858 3.19921875 36.08203125 C-3.18758759 41.97277496 -9.42458393 44.69384086 -18.16015625 44.40625 C-26.0296303 43.28049305 -31.80880396 39.10217876 -36.66015625 32.9609375 C-40.6214259 27.16339417 -40.73055982 20.81223312 -40 14 C-38.15429502 6.29511076 -33.29586959 1.53346947 -27 -3 C-18.09847968 -7.64427147 -7.92787874 -5.50778944 0 0 Z " fill="#F4F4F4" transform="translate(607,492)"/>
<path d="M0 0 C5.06259854 4.76362618 8.60847718 9.18948142 9.3359375 16.26953125 C9.42983204 24.78576573 9.1177288 30.67595494 3.12890625 36.96484375 C-3.77494731 43.3466668 -9.20167929 44.48042252 -18.5546875 44.3046875 C-25.31168547 43.70712986 -29.17637122 41.13138074 -33.8125 36.3125 C-38.5341274 30.45638547 -40.33229423 24.95565685 -40 17.4375 C-38.93749091 9.34434567 -34.90252712 4.31663905 -28.74609375 -0.7734375 C-20.01578942 -6.9061345 -8.55863459 -6.08845957 0 0 Z " fill="#F4F4F4" transform="translate(767,575)"/>
<path d="M0 0 C6.40119242 5.9097623 8.99300095 11.03781871 9.4375 19.75 C9.29467354 26.94488284 7.14934305 32.54217916 2.28515625 37.8828125 C-4.15642238 43.71829073 -9.98933837 44.46562308 -18.5546875 44.3046875 C-25.34634019 43.70406515 -29.18701515 41.12499233 -33.8125 36.25 C-38.2139709 30.82352903 -40.65055275 25.26870207 -40.35546875 18.14453125 C-39.31935722 11.89370457 -36.62482855 5.37483782 -32 1 C-21.86676288 -5.80070025 -10.38187299 -7.36437739 0 0 Z " fill="#F4F4F4" transform="translate(366,575)"/>
<path d="M0 0 C5.82485779 3.51996782 10.54466582 8.98962934 12.5625 15.5 C13.37108816 23.36963126 13.66011108 31.07758604 8.5625 37.5 C3.52773689 43.23081331 -1.86224728 46.3807947 -9.4375 47.5 C-16.68929073 47.7766023 -22.95645265 45.58341268 -28.38671875 40.7734375 C-33.33525332 35.56554577 -36.26750114 30.25257693 -36.52734375 22.98828125 C-36.04397205 14.89490379 -33.48387602 9.10081108 -27.5 3.625 C-20.13239494 -2.67335025 -8.93475005 -3.95932061 0 0 Z " fill="#F4F4F4" transform="translate(763.4375,405.5)"/>
<path d="M0 0 C5.61355707 4.54829784 9.25777759 10.02286579 10.1875 17.24609375 C10.58412605 25.61811929 8.67664368 31.86888851 3.29296875 38.33203125 C-1.72963113 43.1761027 -7.78812731 45.19828893 -14.6796875 45.6484375 C-22.18871082 45.34194675 -28.59075652 42.14536269 -33.8359375 36.77734375 C-37.93224248 31.45575106 -39.69863119 25.39668802 -39.4765625 18.65625 C-38.33311528 10.60869739 -34.56290389 4.40355588 -28.16796875 -0.515625 C-19.84947761 -5.77834389 -8.1618366 -5.39074922 0 0 Z " fill="#F4F4F4" transform="translate(365.16796875,407.515625)"/>
<path d="M0 0 C5.82485779 3.51996782 10.54466582 8.98962934 12.5625 15.5 C13.37108816 23.36963126 13.66011108 31.07758604 8.5625 37.5 C3.52773689 43.23081331 -1.86224728 46.3807947 -9.4375 47.5 C-16.70005157 47.77701275 -22.90846199 45.56227146 -28.38671875 40.80859375 C-33.56205483 35.43796197 -36.24140468 29.64110765 -36.52734375 22.14453125 C-36.0133279 14.48701315 -33.14155344 8.77690918 -27.5 3.625 C-20.13239494 -2.67335025 -8.93475005 -3.95932061 0 0 Z " fill="#F4F4F4" transform="translate(442.4375,405.5)"/>
<path d="M0 0 C5.06259854 4.76362618 8.60847718 9.18948142 9.3359375 16.26953125 C9.42983204 24.78576573 9.1177288 30.67595494 3.12890625 36.96484375 C-3.77494731 43.3466668 -9.20167929 44.48042252 -18.5546875 44.3046875 C-25.27730563 43.71017025 -29.16568487 41.13750347 -33.8125 36.375 C-38.35489199 30.77237006 -40.42212476 24.59466625 -39.9375 17.375 C-38.64831198 9.74730419 -35.26895874 4.34456859 -29.26953125 -0.51953125 C-20.02578468 -6.54944511 -8.99267054 -6.39722498 0 0 Z " fill="#F4F4F4" transform="translate(446,575)"/>
</svg>
